<?xml version="1.0" encoding="utf-8"?>
<!-- Generator: Adobe Illustrator 18.0.0, SVG Export Plug-In . SVG Version: 6.00 Build 0)  -->
<!DOCTYPE svg PUBLIC "-//W3C//DTD SVG 1.1//EN" "http://www.w3.org/Graphics/SVG/1.1/DTD/svg11.dtd">
<svg version="1.1" id="Layer_1" xmlns="http://www.w3.org/2000/svg" xmlns:xlink="http://www.w3.org/1999/xlink" x="0px" y="0px"
	 viewBox="476 149.3 768 768" enable-background="new 476 149.3 768 768" xml:space="preserve">
<g>
	<path fill="#333333" d="M860,640.8c-16.5,0-29.9-13.4-29.9-29.9v-43.3c0-16.5,13.4-29.9,29.9-29.9c32.8,0,58.4-27,58.4-58.4
		c0-32.8-27-58.4-58.4-58.4c-32.8,0-58.4,27-58.4,58.4c0,16.5-13.4,29.9-29.9,29.9s-29.9-13.4-29.9-29.9
		c0-65.7,53.7-117.9,117.9-117.9c65.7,0,117.9,53.7,117.9,117.9c0,55.2-37.5,101.7-88,115v16.5C889.7,627.4,876.3,640.8,860,640.8z"
		/>
	<path fill="#333333" d="M860,723c-7.5,0-14.8-2.9-20.9-9c-6.1-6.1-9-13.4-9-20.9s2.9-14.8,9-20.9c10.5-10.5,31.4-10.5,41.8,0
		c6.1,6.1,9,13.4,9,20.9s-2.9,14.8-9,20.9C874.8,720.1,867.3,723,860,723z"/>
	<path fill="#333333" d="M860,917.3c-212.1,0-384-171.9-384-384s171.9-384,384-384s384,171.9,384,384S1072.1,917.3,860,917.3z
		 M860,209.1c-179.2,0-324.2,144.9-324.2,324.2S682.2,857.5,860,857.5c179.2,0,324.2-146.4,324.2-324.2
		C1184.2,354.1,1039.2,209.1,860,209.1z"/>
</g>
</svg>
