<?xml version="1.0" encoding="utf-8"?>
<!-- Generator: Adobe Illustrator 18.0.0, SVG Export Plug-In . SVG Version: 6.00 Build 0)  -->
<!DOCTYPE svg PUBLIC "-//W3C//DTD SVG 1.1//EN" "http://www.w3.org/Graphics/SVG/1.1/DTD/svg11.dtd">
<svg version="1.1" id="Layer_1" xmlns="http://www.w3.org/2000/svg" xmlns:xlink="http://www.w3.org/1999/xlink" x="0px" y="0px"
	 viewBox="747.1 134.6 382.6 767.8" enable-background="new 747.1 134.6 382.6 767.8" xml:space="preserve">
<path fill="#333333" d="M890.2,902.4c79.2,0,143.5-64.3,143.5-144.8v-24.7v-12.2V335.4c0-54.7-40.9-98.3-95.6-98.3
	c-54.7,0-95.6,43.8-95.6,98.3v388.1c0,15.1,12.2,27.4,27.4,27.4c15.1,0,27.4-12.2,27.4-27.4V335.4c0-24.7,16.5-43.8,40.9-43.8
	c24.7,0,40.9,19.1,40.9,43.8v385.4V733v24.7c0,49.2-39.6,90.3-88.7,90.3c-49.2,0-88.7-39.6-88.7-90.3V398.2v-54.7V327
	c0-75.2,61.4-138.1,136.6-138.1s136.6,61.4,136.6,138.1v396.3c0,15.1,12.2,27.4,27.4,27.4c15.1,0,27.4-12.2,27.4-27.4V327.2
	c0-106.5-84.7-192.6-191.3-192.6s-191.3,86.1-191.3,192.6v16.5v54.7v358.1C746.7,837,811,902.4,890.2,902.4z"/>
</svg>
